<svg width="95" height="55" viewBox="0 0 95 55" fill="none" xmlns="http://www.w3.org/2000/svg">
<path d="M15.4654 2.85133C21.5879 -0.0831532 28.7091 -0.709966 35.3107 0.774426C41.1782 2.09666 46.6318 5.34611 50.4491 10.0269C52.8539 12.9521 54.6179 16.398 55.5978 20.0591C56.0987 21.8335 56.2792 23.6765 56.6027 25.4883C56.5685 26.8168 56.5747 28.1484 56.5996 29.4768C56.2232 31.6255 55.9681 33.8084 55.2681 35.8853C54.201 39.2626 52.465 42.4247 50.1815 45.1285C46.2958 49.7719 40.8079 52.987 34.9125 54.2749C29.4215 55.4693 23.5914 55.2011 18.2684 53.3737C13.0014 51.5774 8.28819 48.1409 5.04959 43.5973C-0.880058 35.4207 -1.61738 23.9041 2.9963 14.951C5.6718 9.6839 10.1424 5.38041 15.4654 2.85133ZM25.1656 11.0623C21.4541 11.714 18.0164 13.7878 15.7267 16.7878C10.7615 23.2056 11.1224 33.1847 16.66 39.1503C19.8271 42.6649 24.6523 44.5016 29.35 44.1773C33.7925 43.9746 38.1169 41.7792 40.8204 38.221C43.9314 34.2325 44.9207 28.8376 43.9532 23.9197C43.1257 19.6973 40.6462 15.7805 37.0405 13.4042C33.5934 11.0872 29.2255 10.3232 25.1656 11.0623V11.0623Z" fill="white"/>
<path d="M26.3789 22.5601C27.9997 21.9333 29.9224 22.164 31.3348 23.1807C32.7628 24.1755 33.6339 25.9124 33.5685 27.6588C33.5312 29.3802 32.5823 31.0392 31.1295 31.9529C29.4339 33.0693 27.0913 33.0631 25.402 31.9373C23.6941 30.8646 22.7265 28.7471 23.0407 26.7482C23.2865 24.8802 24.6243 23.2212 26.3789 22.5601Z" fill="white"/>
<path d="M64.2091 1.07926C68.1321 -0.0465109 72.2698 -0.183724 76.3173 0.178019C80.5701 0.539762 84.7949 1.72478 88.4659 3.9389C90.1117 4.91186 91.6423 6.06569 93.1076 7.29125C90.6499 10.2569 88.189 13.2226 85.7282 16.1851C83.2363 14.0989 80.4488 12.234 77.2631 11.4357C73.3711 10.4814 69.0592 10.4284 65.4287 12.312C60.4385 14.7756 57.2342 20.0302 56.6026 25.4875C56.2791 23.6757 56.0986 21.8327 55.5978 20.0583C54.6178 16.3972 52.8538 12.9513 50.449 10.0262C53.9738 5.71643 58.8519 2.55741 64.2091 1.07926V1.07926Z" fill="white"/>
<path d="M27.8536 14.5483C28.2736 14.2208 28.846 14.4235 29.3345 14.411C32.9308 14.6824 36.3717 16.5254 38.596 19.3725C40.4285 21.6958 41.4769 24.6646 41.3929 27.6334C41.2529 28.3038 40.2169 28.0232 40.3787 27.3745C40.3289 24.3808 39.1685 21.4182 37.1027 19.2447C34.8815 16.8372 31.6584 15.4526 28.3949 15.4027C27.9376 15.4963 27.5114 14.9412 27.8536 14.5483V14.5483Z" fill="white"/>
<path d="M27.8783 18.402C28.7525 18.0527 29.7729 18.3957 30.672 18.5672C34.6572 19.5683 37.6905 23.5131 37.507 27.6482C37.3514 28.3 36.331 28.0256 36.4928 27.3769C36.4865 23.3354 33.1266 19.6275 29.0854 19.3593C28.5129 19.3749 27.3401 19.2439 27.8783 18.402V18.402Z" fill="white"/>
<path d="M71.8936 23.4728C79.5966 23.4697 87.2964 23.4697 94.9993 23.4697C94.9993 31.1755 95.0025 38.8781 94.9962 46.5807C90.3826 50.4788 84.8138 53.2885 78.8655 54.3863C72.9451 55.4808 66.6888 55.1628 61.0454 52.9861C56.8268 51.3676 53.0251 48.6514 50.1816 45.1275C52.4651 42.4238 54.2011 39.2617 55.2682 35.8844C55.9682 33.8075 56.2233 31.6245 56.5997 29.4759C57.0913 33.8231 59.0263 38.1234 62.492 40.8864C65.628 43.4685 69.7937 44.5849 73.81 44.3292C77.2944 44.1826 80.7943 43.2034 83.6689 41.1826C83.672 38.6504 83.6658 36.1182 83.6751 33.586C79.7459 33.5736 75.8198 33.5829 71.8936 33.5798V23.4728V23.4728Z" fill="white"/>
<path d="M15.3285 27.0625C15.7205 26.7507 16.2618 27.153 16.1747 27.6051C16.2338 29.7725 16.8031 31.9336 17.9511 33.7828C19.9515 37.0947 23.6194 39.3524 27.4927 39.5427C27.9749 39.63 28.7184 39.421 28.8335 40.0977C28.7806 40.8056 27.9531 40.6029 27.4927 40.6061C23.9492 40.4096 20.5239 38.6944 18.2435 35.972C16.2338 33.5957 15.0734 30.4804 15.1636 27.3619L15.3285 27.0625V27.0625Z" fill="white"/>
<path d="M19.1674 27.1152C19.5812 26.7379 20.166 27.1277 20.0665 27.6547C20.1131 30.9104 22.2567 34.0008 25.3055 35.139C26.2917 35.5725 27.3681 35.6193 28.4227 35.7503C28.9454 35.7659 28.9174 36.6577 28.4259 36.7232C24.0704 36.9259 19.9389 33.5393 19.1954 29.2451C19.1269 28.5528 18.8532 27.7701 19.1674 27.1152Z" fill="white"/>
</svg>
